<?xml version="1.0" encoding="UTF-8"?>
<svg xmlns="http://www.w3.org/2000/svg" xmlns:svg="http://www.w3.org/2000/svg" xmlns:sodipodi="http://sodipodi.sourceforge.net/DTD/sodipodi-0.dtd" xmlns:rdf="http://www.w3.org/1999/02/22-rdf-syntax-ns#" xmlns:inkscape="http://www.inkscape.org/namespaces/inkscape" xmlns:dc="http://purl.org/dc/elements/1.1/" xmlns:cc="http://creativecommons.org/ns#" version="1.1" viewBox="0 0 95.1 95.7">
  <defs>
    <style>
      .cls-1 {
        fill: #231f20;
      }

      .cls-2 {
        fill: #ed1e24;
      }

      .cls-3 {
        fill: #94d222;
      }

      .cls-4 {
        fill: #f79011;
      }

      .cls-5 {
        fill: #2a419e;
      }
    </style>
  </defs>
  <!-- Generator: Adobe Illustrator 28.7.1, SVG Export Plug-In . SVG Version: 1.2.0 Build 142)  -->
  <g>
    <g id="svg604">
      <sodipodi:namedview id="namedview606" bordercolor="#666666" borderopacity="1" fit-margin-bottom="4" fit-margin-left="4" fit-margin-right="4" fit-margin-top="4" gridtolerance="10" guidetolerance="10" inkscape:current-layer="g612" inkscape:cx="138.42506" inkscape:cy="47.832668" inkscape:pageopacity="0" inkscape:pageshadow="2" inkscape:window-height="480" inkscape:window-maximized="0" inkscape:window-width="763" inkscape:window-x="151" inkscape:window-y="119" inkscape:zoom="2.0978231" lock-margins="true" objecttolerance="10" pagecolor="#ffffff" showgrid="false"/>
      <g id="g792">
        <path id="path794" class="cls-3" d="M28.2,42.3c0,.9-.7,1.6-1.6,1.6h-11.2c-.9,0-1.6-.7-1.6-1.6v-11.2c0-.9.7-1.6,1.6-1.6h11.2c.9,0,1.6.7,1.6,1.6v11.2Z"/>
      </g>
      <g id="g796">
        <path id="path798" class="cls-5" d="M42.2,27.8c0,.9-.7,1.6-1.6,1.6h-9.5c-.9,0-1.6-.7-1.6-1.6v-9.5c0-.9.7-1.6,1.6-1.6h9.5c.9,0,1.6.7,1.6,1.6v9.5Z"/>
      </g>
      <g id="g800">
        <path id="path802" class="cls-2" d="M25.7,19.5c0,.9-.7,1.6-1.6,1.6h-6.6c-.9,0-1.6-.7-1.6-1.6v-6.6c0-.9.7-1.6,1.6-1.6h6.6c.9,0,1.6.7,1.6,1.6v6.6Z"/>
      </g>
      <g id="g804">
        <path id="path806" class="cls-4" d="M11.9,27.4c0,.9-.7,1.6-1.6,1.6h-4.6c-.9,0-1.6-.7-1.6-1.6v-4.6c0-.9.7-1.6,1.6-1.6h4.6c.9,0,1.6.7,1.6,1.6v4.6Z"/>
      </g>
      <g id="g808">
        <path id="path810" class="cls-1" d="M74.9,23c0,.9-.7,1.6-1.6,1.6h-1.9c-.9,0-1.6-.7-1.6-1.6v-1.9c0-.9.7-1.6,1.6-1.6h1.9c.9,0,1.6.7,1.6,1.6v1.9ZM72.9,36.7c0,.9-.7,1.6-1.6,1.6h-6.1c-.9,0-1.6-.7-1.6-1.6v-6.1c0-.9.7-1.6,1.6-1.6h6.1c.9,0,1.6.7,1.6,1.6v6.1ZM61.4,50.9c0,.9-.7,1.6-1.6,1.6h-10.9c-.9,0-1.6-.7-1.6-1.6v-10.9c0-.9.7-1.6,1.6-1.6h10.9c.9,0,1.6.7,1.6,1.6v10.9ZM58.7,13.9c0-.9.7-1.6,1.6-1.6h4c.9,0,1.6.7,1.6,1.6v4c0,.9-.7,1.6-1.6,1.6h-4c-.9,0-1.6-.7-1.6-1.6v-4ZM88.8,40.9c-1,.5-1.3.8-1.3-.6v-8.4c0-1.9.7-27.9-29.2-27.9s-15.5,2.1-15.5,4,0,4.6,0,6.2.9,2.5,2.2,2.5h7.5c.9,0,2.3,0,2.3,1.7v8.3c0,2.2-1.1,2.5-2.2,2.5h-7.7c-1.2,0-2.3.6-2.3,2v7.8c0,1.1-.5,2.1-2.2,2.1h-7.8c-1,0-2.1,1.3-2.1,3.2s0,5.9,0,7.1-1,1-3.6,1c0,0,0,3.7,1.7,8,.9,2.3,2.3,2.8,4.8,2.1,0,0,.3,6.2,1.7,10s2.7,6.3,6.7,9.2c4,2.8,4.4,3.6,7.1,5.8,2.7,2.2,3.9,4.2,10.7,4.2s8.6-2.7,11.5-5.5c2.8-2.8,6.1-2.9,10-8.9,3.3-5,3.5-9.1,4-14.9,0,0,3.6,1.8,4.8-1.8.7-2.2,2.8-12.1,3.6-17.4.8-5.3-3.3-2.7-4.4-2.2"/>
      </g>
    </g>
  </g>
</svg>