<?xml version="1.0" encoding="UTF-8" standalone="no"?>
<!DOCTYPE svg PUBLIC "-//W3C//DTD SVG 1.1//EN" "http://www.w3.org/Graphics/SVG/1.1/DTD/svg11.dtd">
<svg xmlns="http://www.w3.org/2000/svg" xmlns:xlink="http://www.w3.org/1999/xlink" version="1.1" width="770.86386pt" height="621.4833pt" viewBox="0 0 770.86386 621.4833">
<g enable-background="new">
<g id="Layer-1" data-name="Layer 1">
<path transform="matrix(2.7777777,0,0,-2.7777777,0,621.4833)" d="M 47.164 35.911 L 52.367 35.911 L 52.367 107.976 L 47.164 107.976 Z " fill="#b4b4b4"/>
<path transform="matrix(2.7777777,0,0,-2.7777777,0,621.4833)" d="M 67.975 35.911 L 73.178 35.911 L 73.178 107.976 L 67.975 107.976 Z " fill="#b4b4b4"/>
<path transform="matrix(2.7777777,0,0,-2.7777777,0,621.4833)" d="M 88.786 35.911 L 93.989009 35.911 L 93.989009 107.976 L 88.786 107.976 Z " fill="#b4b4b4"/>
<path transform="matrix(2.7777777,0,0,-2.7777777,0,621.4833)" d="M 109.597 35.911 L 114.8 35.911 L 114.8 107.976 L 109.597 107.976 Z " fill="#b4b4b4"/>
<path transform="matrix(2.7777777,0,0,-2.7777777,0,621.4833)" d="M 130.408 35.912 L 135.61101 35.912 L 135.61101 36.624 L 130.408 36.624 Z " fill="#b4b4b4"/>
<path transform="matrix(2.7777777,0,0,-2.7777777,0,621.4833)" d="M 151.22 35.911 L 156.423 35.911 L 156.423 107.976 L 151.22 107.976 Z " fill="#b4b4b4"/>
<path transform="matrix(2.7777777,0,0,-2.7777777,0,621.4833)" d="M 172.031 35.911 L 177.23401 35.911 L 177.23401 107.976 L 172.031 107.976 Z " fill="#b4b4b4"/>
<path transform="matrix(2.7777777,0,0,-2.7777777,0,621.4833)" d="M 192.842 35.911 L 198.045 35.911 L 198.045 107.976 L 192.842 107.976 Z " fill="#b4b4b4"/>
<path transform="matrix(2.7777777,0,0,-2.7777777,0,621.4833)" d="M 213.653 35.911 L 218.856 35.911 L 218.856 107.976 L 213.653 107.976 Z " fill="#b4b4b4"/>
<path transform="matrix(2.7777777,0,0,-2.7777777,0,621.4833)" d="M 234.465 35.911 L 239.668 35.911 L 239.668 107.976 L 234.465 107.976 Z " fill="#b4b4b4"/>
<path transform="matrix(2.7777777,0,0,-2.7777777,0,621.4833)" d="M 140.814 35.912 L 146.017 35.912 L 146.017 35.919 L 140.814 35.919 Z " fill="#a9a9a9"/>
<path transform="matrix(2.7777777,0,0,-2.7777777,0,621.4833)" d="M 52.367 35.911 L 57.57 35.911 L 57.57 91.626 L 52.367 91.626 Z " fill="#2e61f5"/>
<path transform="matrix(2.7777777,0,0,-2.7777777,0,621.4833)" d="M 73.178 35.911 L 78.381008 35.911 L 78.381008 78.269 L 73.178 78.269 Z " fill="#2e61f5"/>
<path transform="matrix(2.7777777,0,0,-2.7777777,0,621.4833)" d="M 93.989 35.911 L 99.192 35.911 L 99.192 64.912 L 93.989 64.912 Z " fill="#2e61f5"/>
<path transform="matrix(2.7777777,0,0,-2.7777777,0,621.4833)" d="M 114.8 35.912 L 120.003009 35.912 L 120.003009 51.557 L 114.8 51.557 Z " fill="#2e61f5"/>
<path transform="matrix(2.7777777,0,0,-2.7777777,0,621.4833)" d="M 135.611 35.912 L 140.814 35.912 L 140.814 36.871999 L 135.611 36.871999 Z " fill="#2e61f5"/>
<path transform="matrix(2.7777777,0,0,-2.7777777,0,621.4833)" d="M 156.423 35.911 L 161.626 35.911 L 161.626 51.556 L 156.423 51.556 Z " fill="#2e61f5"/>
<path transform="matrix(2.7777777,0,0,-2.7777777,0,621.4833)" d="M 177.234 35.911 L 182.437 35.911 L 182.437 64.912 L 177.234 64.912 Z " fill="#2e61f5"/>
<path transform="matrix(2.7777777,0,0,-2.7777777,0,621.4833)" d="M 198.045 35.911 L 203.248 35.911 L 203.248 78.269 L 198.045 78.269 Z " fill="#2e61f5"/>
<path transform="matrix(2.7777777,0,0,-2.7777777,0,621.4833)" d="M 218.856 35.911 L 224.059 35.911 L 224.059 91.626 L 218.856 91.626 Z " fill="#2e61f5"/>
<path transform="matrix(2.7777777,0,0,-2.7777777,0,621.4833)" d="M 239.667 35.911 L 244.87001 35.911 L 244.87001 104.981998 L 239.667 104.981998 Z " fill="#2e61f5"/>
<path transform="matrix(2.7777777,0,0,-2.7777777,152.68888,521.72946)" stroke-width=".8" stroke-linecap="butt" stroke-linejoin="round" fill="none" stroke="#000000" d="M 0 0 L 0 -3.5 "/>
<symbol id="font_0_38">
<path d="M .24000001 0 C .18466668 0 .139 .014333334 .103 .043 C .06766667 .071666669 .041666669 .11266667 .024999999 .16600001 C .008333333 .22000002 0 .285 0 .361 C 0 .43700005 .008333333 .50200006 .024999999 .55600008 C .041666669 .6100001 .06766667 .651 .103 .6790001 C .139 .7076667 .18466668 .72200009 .24000001 .72200009 C .296 .72200009 .34166668 .7076667 .377 .6790001 C .41233335 .651 .43833337 .6100001 .45500005 .55600008 C .4716667 .50200006 .48000003 .43700005 .48000003 .361 C .48000003 .285 .4716667 .22000002 .45500005 .16600001 C .43833337 .11266667 .41233335 .071666669 .377 .043 C .34166668 .014333334 .296 0 .24000001 0 M .24000001 .07300001 C .27666668 .07300001 .30600003 .08266667 .328 .102000009 C .35000003 .122 .36600004 .14933335 .37600003 .184 C .3866667 .21933334 .39200006 .25933335 .39200003 .30400003 L .39200003 .418 C .39200006 .46333338 .3866667 .5033334 .37600003 .53800007 C .36600004 .5726667 .35000003 .5996667 .328 .6190001 C .30600003 .63900008 .27666668 .64900007 .24000001 .64900007 C .204 .64900007 .17466669 .63900008 .15200001 .6190001 C .13000001 .5996667 .113666679 .5726667 .103 .53800007 C .092999998 .5033334 .088 .46333338 .088 .418 L .088 .30400003 C .088 .25933335 .092999998 .21933334 .103 .184 C .113666679 .14933335 .13000001 .122 .15200001 .102000009 C .17466669 .08266667 .204 .07300001 .24000001 .07300001 Z "/>
</symbol>
<use xlink:href="#font_0_38" transform="matrix(30.555554,0,0,-30.555554,147.60416,560.7577)"/>
<path transform="matrix(2.7777777,0,0,-2.7777777,210.49776,521.72946)" stroke-width=".8" stroke-linecap="butt" stroke-linejoin="round" fill="none" stroke="#000000" d="M 0 0 L 0 -3.5 "/>
<symbol id="font_0_3b">
<path d="M .49600006 0 L .037000006 0 L .037000006 .074 L .23200003 .074 L .23200003 .63600006 L .22500003 .63600006 L .049 .47200004 L 0 .52500006 L .18500002 .698 L .316 .698 L .316 .074 L .49600006 .074 L .49600006 0 Z "/>
</symbol>
<use xlink:href="#font_0_3b" transform="matrix(30.555554,0,0,-30.555554,205.13776,560.39108)"/>
<path transform="matrix(2.7777777,0,0,-2.7777777,268.30668,521.72946)" stroke-width=".8" stroke-linecap="butt" stroke-linejoin="round" fill="none" stroke="#000000" d="M 0 0 L 0 -3.5 "/>
<symbol id="font_0_3c">
<path d="M .46400006 .074 L .46400006 0 L .0059999974 0 L .0059999974 .086 L .234 .296 C .26666669 .326 .29400004 .35800005 .316 .39200003 C .33800004 .42600004 .349 .4596667 .349 .49300004 L .349 .505 C .349 .54366669 .33833335 .57500007 .317 .59900006 C .29566667 .6230001 .26333333 .63500007 .22 .63500007 C .17733334 .63500007 .14466667 .6236667 .12200001 .601 C .1 .5783334 .08433334 .5503333 .075 .517 L 0 .546 C .009333332 .5733333 .022666665 .59933337 .04 .624 C .058 .6493334 .082 .6700001 .112 .68600007 C .142 .7020001 .17933333 .71000006 .224 .71000006 C .26933337 .71000006 .308 .70133337 .34 .684 C .372 .6666667 .39633335 .64266678 .41300003 .61200007 C .42966668 .582 .43800006 .547 .43800003 .507 C .43800006 .47100006 .43133334 .438 .418 .40800003 C .40533338 .37800003 .38733337 .34966669 .36400003 .323 C .34133337 .29633335 .31500004 .2696667 .285 .24300002 L .097 .074 L .46400006 .074 Z "/>
</symbol>
<use xlink:href="#font_0_3c" transform="matrix(30.555554,0,0,-30.555554,263.49613,560.39108)"/>
<path transform="matrix(2.7777777,0,0,-2.7777777,326.11555,521.72946)" stroke-width=".8" stroke-linecap="butt" stroke-linejoin="round" fill="none" stroke="#000000" d="M 0 0 L 0 -3.5 "/>
<symbol id="font_0_3d">
<path d="M .143 .414 L .21900001 .414 C .26633335 .414 .3016667 .42500005 .32500003 .44700004 C .349 .469 .36100004 .49666668 .36100004 .53000006 L .36100004 .53700008 C .36100004 .57366678 .34933339 .6010001 .32600004 .6190001 C .30333338 .63766679 .27333335 .6470001 .23600003 .6470001 C .2 .6470001 .17066668 .63900008 .148 .623 C .12533333 .6076667 .10666666 .5866667 .092 .56000009 L .030000002 .60800006 C .042 .6266667 .057 .64466676 .075 .66200008 C .093 .6793334 .11533334 .69366678 .14200002 .70500007 C .16866668 .7163334 .20066667 .72200009 .238 .72200009 C .27733336 .72200009 .31300003 .7150001 .34500004 .70100006 C .377 .6876667 .40233339 .66800007 .42100004 .6420001 C .44033338 .61600008 .45000003 .58400008 .45000003 .54600009 C .45000003 .50133338 .43700005 .46533335 .411 .43800003 C .38500003 .4106667 .35333336 .39233337 .316 .38300003 L .316 .379 C .34133337 .37433336 .365 .3646667 .38700003 .35000003 C .4096667 .336 .42800007 .31666667 .44200004 .292 C .456 .268 .46299998 .23833335 .463 .20300001 C .46299998 .163 .45299999 .12766667 .43300004 .097 C .4136667 .067 .386 .043333334 .35000003 .026 C .3146667 .008666667 .27333335 0 .22600001 0 C .186 0 .15166667 .005666667 .123 .017 C .095 .029000005 .071 .044 .051 .062 C .031666668 .080000009 .014666666 .09900001 0 .11900001 L .063 .167 C .081 .13966666 .10166667 .11733333 .125 .10000001 C .149 .083333339 .18233335 .075 .22500003 .075 C .27433337 .075 .3116667 .086333338 .337 .109000008 C .3623334 .13166668 .37500004 .16333334 .37500004 .204 L .37500004 .212 C .37500004 .25333337 .3623334 .285 .337 .307 C .3116667 .3296667 .27433337 .341 .22500003 .34100003 L .143 .34100003 L .143 .414 Z "/>
</symbol>
<use xlink:href="#font_0_3d" transform="matrix(30.555554,0,0,-30.555554,320.4808,560.7577)"/>
<path transform="matrix(2.7777777,0,0,-2.7777777,383.92445,521.72946)" stroke-width=".8" stroke-linecap="butt" stroke-linejoin="round" fill="none" stroke="#000000" d="M 0 0 L 0 -3.5 "/>
<symbol id="font_0_3e">
<path d="M .417 0 L .337 0 L .337 .13700001 L 0 .13700001 L 0 .21100001 L .292 .698 L .417 .698 L .417 .20700002 L .51800009 .20700002 L .51800009 .13700001 L .417 .13700001 L .417 0 M .33200003 .633 L .079 .20700002 L .337 .20700002 L .337 .633 L .33200003 .633 Z "/>
</symbol>
<use xlink:href="#font_0_3e" transform="matrix(30.555554,0,0,-30.555554,378.1672,560.39108)"/>
<path transform="matrix(2.7777777,0,0,-2.7777777,441.73304,521.72946)" stroke-width=".8" stroke-linecap="butt" stroke-linejoin="round" fill="none" stroke="#000000" d="M 0 0 L 0 -3.5 "/>
<symbol id="font_0_3f">
<path d="M .421 .71000006 L .421 .63600006 L .114999998 .63600006 L .095 .37 L .102 .37 C .11333334 .386 .12533333 .3996667 .138 .411 C .15066667 .42233334 .16566669 .431 .18300002 .437 C .20033334 .4436667 .22100002 .44700004 .24500002 .44700004 C .285 .44700004 .32066668 .43833337 .352 .421 C .38333334 .40366666 .408 .37900005 .426 .347 C .444 .315 .45299999 .27633334 .453 .231 C .45299999 .18566668 .4436667 .14566668 .425 .11100001 C .40633337 .07633334 .37933336 .049 .34400005 .029000001 C .30933336 .009666667 .26733334 0 .21800001 0 C .17933335 0 .14633334 .005666667 .119 .017 C .09166666 .029000005 .06833333 .044 .048999996 .062 C .03033333 .080000009 .013999999 .09900001 0 .11900001 L .06299999 .167 C .081 .13966666 .10066667 .11733333 .12200001 .10000001 C .14400001 .083333339 .176 .075 .21800001 .075 C .26533336 .075 .30133338 .08766667 .32600004 .113000009 C .35133339 .13833334 .364 .17400001 .36400003 .22 L .36400003 .23 C .364 .276 .35133339 .31166668 .32600004 .337 C .30133338 .36233334 .26533336 .375 .21800001 .375 C .186 .375 .16066666 .369 .142 .35700003 C .12399999 .34566669 .107666667 .33200003 .092999998 .316 L .022 .326 L .047 .71000006 L .421 .71000006 Z "/>
</symbol>
<use xlink:href="#font_0_3f" transform="matrix(30.555554,0,0,-30.555554,437.1672,560.7577)"/>
<path transform="matrix(2.7777777,0,0,-2.7777777,499.54194,521.72946)" stroke-width=".8" stroke-linecap="butt" stroke-linejoin="round" fill="none" stroke="#000000" d="M 0 0 L 0 -3.5 "/>
<symbol id="font_0_40">
<path d="M .23400003 0 C .18600004 0 .14433335 .0106666679 .10900001 .032 C .07433334 .054000006 .04733334 .085 .028000005 .125 C .009333335 .165 0 .21266668 0 .268 C 0 .32000003 .007333333 .36866669 .022 .414 C .037333337 .45933334 .057333337 .501 .082 .53900006 C .10733334 .5770001 .13433333 .6103334 .163 .63900008 C .19233334 .66833338 .22100002 .6920001 .24900002 .71000006 L .35700003 .71000006 C .3076667 .6740001 .26500003 .6383334 .229 .60300007 C .19366668 .5683334 .16433335 .5306667 .141 .49 C .11766667 .44933335 .09966668 .40200005 .08700001 .34800003 L .09200001 .34600003 C .10333335 .36533333 .11633334 .38233338 .13100001 .397 C .14633335 .41233335 .16466668 .42433334 .18600002 .43300004 C .20733337 .4416667 .23200004 .446 .26000003 .446 C .30000005 .446 .33533336 .43733336 .36600004 .42000003 C .39733336 .4026667 .4216667 .37766669 .43900005 .345 C .45700006 .313 .46600006 .275 .46600006 .231 C .46600006 .18566668 .45633338 .14533334 .437 .11000001 C .41766668 .075333338 .3906667 .048333337 .356 .029000001 C .32133336 .009666667 .28066669 0 .23400003 0 M .23300001 .07300001 C .26366667 .07300001 .28966669 .07866667 .31100003 .09 C .33300004 .10133334 .34966669 .11800001 .36100004 .14 C .37300004 .162 .37900005 .18866666 .379 .22 L .379 .228 C .37900005 .25933335 .37300004 .286 .36100004 .308 C .34966669 .33 .33300004 .3466667 .31100003 .358 C .28966669 .36933337 .26366667 .375 .23300001 .375 C .20233333 .375 .176 .36933337 .15400002 .358 C .13266668 .3466667 .116000007 .33 .104 .308 C .09266668 .286 .08700001 .25933335 .08700001 .228 L .08700001 .22 C .08700001 .18866666 .09266668 .162 .104 .14 C .116000007 .11800001 .13266668 .10133334 .15400002 .09 C .176 .07866667 .20233333 .07300001 .23300001 .07300001 Z "/>
</symbol>
<use xlink:href="#font_0_40" transform="matrix(30.555554,0,0,-30.555554,494.67137,560.7577)"/>
<path transform="matrix(2.7777777,0,0,-2.7777777,557.3508,521.72946)" stroke-width=".8" stroke-linecap="butt" stroke-linejoin="round" fill="none" stroke="#000000" d="M 0 0 L 0 -3.5 "/>
<symbol id="font_0_41">
<path d="M .19600001 0 L .106000009 0 L .37300004 .62600007 L .075 .62600007 L .075 .49600003 L 0 .49600003 L 0 .698 L .458 .698 L .458 .624 L .19600001 0 Z "/>
</symbol>
<use xlink:href="#font_0_41" transform="matrix(30.555554,0,0,-30.555554,552.53976,560.39108)"/>
<path transform="matrix(2.7777777,0,0,-2.7777777,615.1597,521.72946)" stroke-width=".8" stroke-linecap="butt" stroke-linejoin="round" fill="none" stroke="#000000" d="M 0 0 L 0 -3.5 "/>
<symbol id="font_0_42">
<path d="M .24200002 0 C .18933337 0 .14500003 .008666667 .10900001 .026 C .07300001 .044 .04566667 .068333338 .026999999 .09900001 C .009 .12966667 0 .16399999 0 .202 C 0 .24933334 .013 .287 .039 .315 C .065000008 .34366668 .099000018 .36366669 .14100002 .375 L .14100002 .38300003 C .10433334 .3956667 .07500001 .416 .053000008 .444 C .03166667 .47266666 .021000004 .507 .021000002 .54700008 C .021000004 .6003334 .040333339 .64266678 .07900001 .6740001 C .11833334 .7060001 .17266667 .72200009 .24200002 .72200009 C .31133334 .72200009 .36533336 .7060001 .404 .6740001 C .44333337 .64266678 .46300004 .6003334 .46300004 .54700008 C .46300004 .507 .45200003 .47266666 .43000005 .444 C .4086667 .416 .3796667 .3956667 .34300003 .38300003 L .34300003 .375 C .38500003 .36366669 .41900004 .34366668 .44500003 .315 C .47100006 .287 .48400007 .24933334 .48400007 .202 C .48400007 .16399999 .4746667 .12966667 .456 .09900001 C .438 .068333338 .411 .044 .37500004 .026 C .3396667 .008666667 .29533337 0 .24200002 0 M .24200002 .07300001 C .2906667 .07300001 .32833336 .084000017 .35500003 .106000009 C .38166667 .128 .395 .15866667 .395 .198 L .395 .21900001 C .395 .25833334 .38166667 .289 .35500003 .31100003 C .32833336 .33300004 .2906667 .344 .24200002 .344 C .19333335 .344 .15566668 .33300004 .12900001 .31100003 C .10233334 .289 .08900001 .25833334 .089 .21900001 L .089 .198 C .08900001 .15866667 .10233334 .128 .12900001 .106000009 C .15566668 .084000017 .19333335 .07300001 .24200002 .07300001 M .24200002 .414 C .28533338 .414 .31833337 .42333333 .34100003 .442 C .36433337 .46133337 .37600003 .48866669 .37600003 .52400007 L .37600003 .53900006 C .37600003 .57433339 .36433337 .6013334 .34100003 .62000009 C .31833337 .6393334 .28533338 .64900007 .24200002 .64900007 C .19866669 .64900007 .16533335 .6393334 .142 .62000009 C .11933335 .6013334 .10800001 .57433339 .10800001 .53900006 L .10800001 .52400007 C .10800001 .48866669 .11933335 .46133337 .142 .442 C .16533335 .42333333 .19866669 .414 .24200002 .414 Z "/>
</symbol>
<use xlink:href="#font_0_42" transform="matrix(30.555554,0,0,-30.555554,610.0133,560.7577)"/>
<path transform="matrix(2.7777777,0,0,-2.7777777,672.9686,521.72946)" stroke-width=".8" stroke-linecap="butt" stroke-linejoin="round" fill="none" stroke="#000000" d="M 0 0 L 0 -3.5 "/>
<symbol id="font_0_43">
<path d="M .46600006 .44200004 C .46600006 .39000003 .45833338 .34133337 .44300006 .296 C .42833338 .25066669 .4083334 .209 .38300003 .171 C .35833336 .133 .33133338 .09933334 .30200003 .07 C .27333335 .041333334 .245 .018000002 .21700001 0 L .10900001 0 C .15900003 .03666667 .20166667 .072333339 .23700002 .10700001 C .27233336 .14166667 .3016667 .17933335 .32500003 .22000002 C .34833337 .2606667 .36633335 .308 .379 .36200003 L .374 .36400003 C .36333335 .34533335 .35033334 .32833336 .335 .31300003 C .31966666 .2976667 .30133335 .28566668 .28 .277 C .25933335 .26833336 .23466666 .264 .206 .264 C .16600001 .264 .13033335 .27266667 .09900001 .29000003 C .068333338 .30733336 .044 .33200003 .026 .36400003 C .008666667 .39666669 0 .43500004 0 .47900004 C 0 .52500006 .009666666 .56533339 .029 .6 C .048333333 .6346667 .075333338 .6616667 .11 .68100008 C .14466667 .70033338 .18533336 .71000006 .23200003 .71000006 C .28066669 .71000006 .32233335 .69900009 .35700003 .67700007 C .39166669 .6556667 .41833333 .62500008 .437 .58500006 C .45633338 .545 .46600006 .49733339 .46600006 .44200004 M .23300001 .335 C .26366667 .335 .28966669 .34066669 .31100003 .35200004 C .33300004 .36333335 .34966669 .38000003 .36100004 .402 C .37300004 .42400003 .37900005 .4506667 .379 .48200003 L .379 .49 C .37900005 .52133336 .37300004 .54800006 .36100004 .57000008 C .34966669 .59200009 .33300004 .6086667 .31100003 .62 C .28966669 .63133338 .26366667 .637 .23300001 .637 C .20233333 .637 .176 .63133338 .15400002 .62 C .13266668 .6086667 .116000007 .59200009 .104 .57000008 C .09266668 .54800006 .08700001 .52133336 .08700001 .49 L .08700001 .48200003 C .08700001 .4506667 .09266668 .42400003 .104 .402 C .116000007 .38000003 .13266668 .36333335 .15400002 .35200004 C .176 .34066669 .20233333 .335 .23300001 .335 Z "/>
</symbol>
<use xlink:href="#font_0_43" transform="matrix(30.555554,0,0,-30.555554,668.0981,560.39108)"/>
<symbol id="font_0_2d">
<path d="M .084 0 L 0 0 L 0 .698 L .27800004 .698 C .32000003 .698 .35533337 .6896667 .38400004 .67300006 C .4133334 .65700009 .43533338 .63400009 .45000006 .60400006 C .46533338 .5746667 .47300006 .53933337 .47300006 .49800004 C .47300006 .45733334 .46533338 .42200003 .45000006 .39200003 C .43533338 .362 .4133334 .33866669 .38400004 .32200004 C .35533337 .30600003 .32000003 .298 .27800004 .298 L .084 .298 L .084 0 M .084 .624 L .084 .372 L .27800004 .372 C .30000005 .372 .3186667 .3756667 .33400003 .38300003 C .35000003 .39100004 .36200003 .40233336 .37000004 .41700004 C .37866668 .43233336 .38300003 .4506667 .38300003 .47200004 L .38300003 .52400007 C .38300003 .5453334 .37866668 .56333336 .37000004 .578 C .36200003 .5933333 .35000003 .6046667 .33400003 .61200007 C .3186667 .62000009 .30000005 .624 .27800004 .624 L .084 .624 Z "/>
</symbol>
<symbol id="font_0_15">
<path d="M .080000009 0 L 0 0 L 0 .51600006 L .080000009 .51600006 L .080000009 .42100004 L .085 .42100004 C .091 .43766669 .10033334 .45299999 .11300001 .467 C .12566667 .48166669 .142 .49333335 .162 .50200006 C .182 .5113334 .20600002 .51600006 .234 .51600006 L .26500003 .51600006 L .26500003 .43600003 L .218 .43600003 C .18933334 .43600003 .16466668 .432 .14400003 .42400003 C .12333336 .41666667 .10733334 .40666668 .09600001 .39400003 C .08533334 .38133336 .080000009 .3666667 .080000009 .35000003 L .080000009 0 Z "/>
</symbol>
<symbol id="font_0_6">
<path d="M .23200001 0 C .18533333 0 .14466667 .011 .11 .033 C .075333338 .055666668 .048333337 .087000008 .029000003 .127 C .009666667 .16766668 0 .21533335 0 .27 C 0 .32466666 .009666667 .37199999 .029000003 .412 C .048333337 .45266668 .075333338 .48400007 .11 .50600007 C .14466667 .5286667 .18533333 .54 .23200001 .54 C .27800004 .54 .31766669 .52900007 .35100005 .507 C .38433338 .48566667 .41 .456 .42800004 .418 C .446 .38 .45500005 .33666668 .45500005 .28800003 L .45500005 .25 L .08400001 .25 L .08400001 .22600001 C .084000017 .18133335 .097333338 .144 .124 .11400001 C .15133333 .08466667 .18900001 .07 .237 .07 C .26966668 .07 .298 .07766667 .32200004 .093 C .3466667 .10833334 .36566673 .13033334 .37900005 .159 L .43600003 .11800001 C .41933338 .083333339 .39333336 .054999997 .35800005 .033 C .3226667 .011 .28066669 0 .23200001 0 M .23200001 .47300003 C .20333334 .47300003 .17766667 .46633337 .155 .453 C .133 .43966667 .115666668 .421 .103 .397 C .09033334 .37366668 .084000017 .347 .08400001 .317 L .08400001 .31 L .36900003 .31 L .36900003 .321 C .36900006 .3516667 .36333335 .37833334 .35200004 .40100003 C .34066669 .4236667 .3246667 .44133333 .30400003 .45400004 C .28333337 .4666667 .25933335 .47300003 .23200001 .47300003 Z "/>
</symbol>
<symbol id="font_0_5">
<path d="M .365 .012 L .365 .09600001 L .361 .09600001 C .34566666 .064 .32533334 .040000004 .3 .024 C .27533335 .008 .24533336 0 .21000003 0 C .16733335 0 .13000001 .011 .098000008 .033 C .06666667 .054999997 .042333336 .086333338 .025000003 .127 C .008333334 .16766668 0 .21533335 0 .27 C 0 .32533337 .008333334 .37300004 .025000003 .41300003 C .042333336 .4536667 .06666667 .485 .098000008 .507 C .13000001 .52900007 .16733335 .54 .21000003 .54 C .24533336 .54 .27600003 .532 .30200003 .51600006 C .32800005 .5006667 .34766666 .4766667 .361 .444 L .365 .444 L .365 .75200006 L .44500003 .75200006 L .44500003 .012 L .365 .012 M .23200001 .072000008 C .25666667 .072000008 .279 .076000008 .299 .08400001 C .319 .09266666 .335 .10466667 .347 .120000008 C .359 .13599999 .365 .15499999 .365 .177 L .365 .36900003 C .365 .38833333 .359 .40533338 .347 .42000003 C .335 .43466667 .319 .44633333 .299 .455 C .279 .46366669 .25666667 .46800003 .23200001 .46800003 C .18733335 .46800003 .15166669 .4536667 .12500002 .425 C .099000018 .39699999 .086 .36 .08600001 .314 L .08600001 .22600001 C .086 .18 .099000018 .14266669 .12500002 .11400001 C .15166669 .086 .18733335 .072000008 .23200001 .072000008 Z "/>
</symbol>
<symbol id="font_0_c">
<path d="M .048999996 .637 C .03233333 .637 .019999998 .64100006 .012000002 .64900007 C .0040000008 .65766677 0 .66866669 0 .68200007 L 0 .69500008 C 0 .7083333 .0040000008 .71900007 .012000002 .72700008 C .019999998 .7356667 .03233333 .74 .048999996 .74 C .06633333 .74 .078666668 .7356667 .085999999 .72700008 C .094000007 .71900007 .09800001 .7083333 .098000008 .69500008 L .098000008 .68200007 C .09800001 .66866669 .094000007 .65766677 .085999999 .64900007 C .078666668 .64100006 .06633333 .637 .048999996 .637 M .008999996 0 L .008999996 .51600006 L .089 .51600006 L .089 0 L .008999996 0 Z "/>
</symbol>
<symbol id="font_0_4">
<path d="M .23 0 C .15733333 0 .10066667 .024333336 .060000007 .07300001 C .020000002 .12166667 0 .18733335 0 .27 C 0 .3526667 .020000002 .41833339 .060000007 .467 C .10066667 .51566669 .15733333 .54 .23 .54 C .28133337 .54 .32266668 .5286667 .35400004 .50600007 C .3853334 .48333336 .4083334 .45433335 .42300005 .419 L .35600005 .38500003 C .3466667 .41166667 .33100004 .43233336 .30900003 .44700004 C .28766669 .46166668 .26133336 .469 .23 .469 C .18266668 .469 .14666668 .45433335 .12200001 .425 C .098 .39633335 .085999999 .35933338 .085999999 .314 L .085999999 .22600001 C .085999999 .18133335 .098 .14433334 .12200001 .11500001 C .14666668 .08566668 .18266668 .071 .23 .071 C .26266668 .071 .2906667 .078666668 .31400005 .094000007 C .33733336 .10933334 .35600005 .13166668 .37000004 .161 L .42800004 .12200001 C .41133336 .08533334 .38633336 .055666668 .35300002 .033 C .32033337 .011 .27933336 0 .23 0 Z "/>
</symbol>
<symbol id="font_0_17">
<path d="M .27 0 L .17000002 0 C .14266669 0 .12166667 .008 .10700001 .024 C .09233334 .040000004 .08500001 .06033333 .08500001 .085 L .08500001 .446 L 0 .446 L 0 .51600006 L .048000009 .51600006 C .065333347 .51600006 .07700001 .51933339 .083000008 .526 C .08966667 .53333339 .09300002 .5456667 .09300001 .563 L .09300001 .65900006 L .165 .65900006 L .165 .51600006 L .278 .51600006 L .278 .446 L .165 .446 L .165 .07 L .27 .07 L .27 0 Z "/>
</symbol>
<symbol id="font_0_19">
<path d="M .27400003 0 L .18100001 0 L 0 .51600006 L .080000009 .51600006 L .17 .26000003 L .22600001 .08400001 L .231 .08400001 L .287 .26000003 L .379 .51600006 L .45600004 .51600006 L .27400003 0 Z "/>
</symbol>
<symbol id="font_0_1">
<path d="M .461 .012 L .416 .012 C .39466668 .011999999 .37733338 .016333335 .36400003 .025 C .35066668 .034333335 .341 .047000003 .335 .063 C .329 .079 .326 .09733334 .326 .11800001 L .326 .125 L .35700003 .09600001 L .32200004 .09600001 C .31133337 .064666669 .29266668 .04066667 .266 .024 C .24000001 .008 .20900004 0 .17300001 0 C .11833334 0 .07566667 .014000001 .044999999 .042000005 C .015 .07 0 .108 0 .156 C 0 .18866666 .008 .216 .024 .238 C .040000004 .2606667 .064 .2776667 .096 .289 C .12866669 .301 .17 .307 .22 .307 L .32200004 .307 L .32200004 .358 C .32200004 .39466668 .31200005 .42266668 .29200004 .442 C .27200005 .46133337 .24133337 .47100006 .20000002 .47100003 C .16933334 .47100006 .14333335 .46400003 .12200001 .45000003 C .10066667 .43600003 .083000008 .41733337 .069000009 .39400003 L .021000002 .439 C .035 .46633337 .05733333 .49 .088 .51000007 C .11866667 .53000006 .15733333 .54 .20400001 .54 C .266 .54 .31433336 .5246667 .349 .49400003 C .38433335 .46333338 .40200005 .4206667 .402 .366 L .402 .082 L .461 .082 L .461 .012 M .32200004 .24700001 L .21600002 .24700001 C .17066668 .24700003 .13733334 .24033334 .11600001 .227 C .09466668 .21366668 .084000017 .19433333 .08400001 .169 L .08400001 .148 C .084000017 .12266668 .09333334 .10300001 .112 .08900001 C .13066668 .07500001 .15533334 .068 .186 .068 C .21266668 .068 .23600002 .072000008 .256 .080000009 C .27666668 .08866667 .2926667 .1 .30400003 .11400001 C .316 .12866669 .32200004 .14466667 .32200004 .162 L .32200004 .24700001 Z "/>
</symbol>
<symbol id="font_0_f">
<path d="M .15600002 0 L .085 0 C .05766667 0 .036666674 .0076666676 .022000008 .023000002 C .007333336 .039 0 .059000005 0 .083000008 L 0 .74 L .080000009 .74 L .080000009 .07 L .15600002 .07 L .15600002 0 Z "/>
</symbol>
<symbol id="font_0_18">
<path d="M .323 .012 L .323 .09600001 L .319 .09600001 C .309 .07133334 .29299999 .049 .271 .029000001 C .24966665 .009666667 .21733332 0 .174 0 C .12133334 0 .079 .016999999 .047 .051 C .015666666 .08566668 0 .13433333 0 .197 L 0 .52800008 L .080000009 .52800008 L .080000009 .21100001 C .080000009 .165 .09 .13033335 .11000001 .10700001 C .13000001 .083666678 .15933335 .072000008 .19800002 .072000008 C .21933334 .072000008 .23933333 .075333338 .25800003 .082 C .27733336 .08933333 .293 .10033333 .305 .11500001 C .317 .12966667 .323 .14833333 .323 .171 L .323 .52800008 L .403 .52800008 L .403 .012 L .323 .012 Z "/>
</symbol>
<use xlink:href="#font_0_2d" transform="matrix(33.333333,0,0,-33.333333,322.2975,601.6591)"/>
<use xlink:href="#font_0_15" transform="matrix(33.333333,0,0,-33.333333,342.23085,601.6591)"/>
<use xlink:href="#font_0_6" transform="matrix(33.333333,0,0,-33.333333,353.1975,602.05917)"/>
<use xlink:href="#font_0_5" transform="matrix(33.333333,0,0,-33.333333,371.5975,602.05917)"/>
<use xlink:href="#font_0_c" transform="matrix(33.333333,0,0,-33.333333,391.79753,601.6591)"/>
<use xlink:href="#font_0_4" transform="matrix(33.333333,0,0,-33.333333,399.1642,602.05917)"/>
<use xlink:href="#font_0_17" transform="matrix(33.333333,0,0,-33.333333,415.33088,601.6591)"/>
<use xlink:href="#font_0_6" transform="matrix(33.333333,0,0,-33.333333,427.6309,602.05917)"/>
<use xlink:href="#font_0_5" transform="matrix(33.333333,0,0,-33.333333,446.03086,602.05917)"/>
<use xlink:href="#font_0_19" transform="matrix(33.333333,0,0,-33.333333,475.39753,601.6591)"/>
<use xlink:href="#font_0_1" transform="matrix(33.333333,0,0,-33.333333,490.83085,602.05917)"/>
<use xlink:href="#font_0_f" transform="matrix(33.333333,0,0,-33.333333,509.99754,601.6591)"/>
<use xlink:href="#font_0_18" transform="matrix(33.333333,0,0,-33.333333,518.8976,602.05917)"/>
<use xlink:href="#font_0_6" transform="matrix(33.333333,0,0,-33.333333,536.73086,602.05917)"/>
<path transform="matrix(2.7777777,0,0,-2.7777777,102.82888,521.72946)" stroke-width=".8" stroke-linecap="butt" stroke-linejoin="round" fill="none" stroke="#000000" d="M 0 0 L -3.5 0 "/>
<path transform="matrix(2.7777777,0,0,-2.7777777,102.82888,442.44139)" stroke-width=".8" stroke-linecap="butt" stroke-linejoin="round" fill="none" stroke="#000000" d="M 0 0 L -3.5 0 "/>
<path transform="matrix(2.7777777,0,0,-2.7777777,102.82888,363.153)" stroke-width=".8" stroke-linecap="butt" stroke-linejoin="round" fill="none" stroke="#000000" d="M 0 0 L -3.5 0 "/>
<path transform="matrix(2.7777777,0,0,-2.7777777,102.82888,283.86497)" stroke-width=".8" stroke-linecap="butt" stroke-linejoin="round" fill="none" stroke="#000000" d="M 0 0 L -3.5 0 "/>
<path transform="matrix(2.7777777,0,0,-2.7777777,102.82888,204.57666)" stroke-width=".8" stroke-linecap="butt" stroke-linejoin="round" fill="none" stroke="#000000" d="M 0 0 L -3.5 0 "/>
<symbol id="font_0_29">
<path d="M .38100005 0 L 0 0 L 0 .698 L .084 .698 L .084 .074 L .38100005 .074 L .38100005 0 Z "/>
</symbol>
<symbol id="font_0_12">
<path d="M .233 0 C .18699999 0 .14633334 .011 .111 .033 C .07633334 .055666668 .049000008 .087000008 .029000003 .127 C .009666667 .16766668 0 .21533335 0 .27 C 0 .32466666 .009666667 .37199999 .029000003 .412 C .049000008 .45266668 .07633334 .48400007 .111 .50600007 C .14633334 .5286667 .18699999 .54 .233 .54 C .279 .54 .31933335 .5286667 .35400004 .50600007 C .38933338 .48400007 .41666673 .45266668 .43600003 .412 C .456 .37199999 .466 .32466666 .46600003 .27 C .466 .21533335 .456 .16766668 .43600003 .127 C .41666673 .087000008 .38933338 .055666668 .35400004 .033 C .31933335 .011 .279 0 .233 0 M .233 .071 C .27633337 .071 .3116667 .08433334 .33900003 .11100001 C .36633338 .13766667 .38000003 .17833334 .38000003 .23300001 L .38000003 .307 C .38000003 .36166669 .36633338 .40233336 .33900003 .42900003 C .3116667 .4556667 .27633337 .469 .233 .469 C .19033332 .469 .155 .4556667 .127 .42900003 C .09966666 .40233336 .085999999 .36166669 .085999999 .307 L .085999999 .23300001 C .085999999 .17833334 .09966666 .13766667 .127 .11100001 C .155 .08433334 .19033332 .071 .233 .071 Z "/>
</symbol>
<symbol id="font_0_16">
<path d="M .20400001 0 C .15666668 0 .116666678 .009000001 .08400001 .027 C .051333339 .045666666 .023333334 .07033333 0 .101 L .057 .147 C .077 .12233334 .09933334 .10300001 .12400001 .08900001 C .14866668 .07500001 .17733336 .068 .21000001 .068 C .244 .068 .27033333 .075333338 .289 .09 C .3083333 .10466667 .318 .12533333 .318 .152 C .318 .17199999 .31133334 .18933332 .298 .204 C .28533338 .21866668 .262 .22833336 .228 .23300001 L .187 .23900001 C .15566668 .24366667 .12733335 .25133334 .10200001 .262 C .07666667 .27333335 .05666666 .289 .042 .30900003 C .028000003 .32966668 .021000004 .35600005 .021000002 .388 C .021000004 .43933336 .038333335 .47733335 .073 .50200006 C .10833333 .5273333 .15233334 .54 .20500002 .54 C .23300003 .54 .25766669 .5366667 .279 .53000006 C .301 .5233334 .32066668 .5136667 .338 .50100007 C .35533334 .489 .37100003 .47433339 .38500003 .45700003 L .33200003 .409 C .32066668 .42500005 .304 .43933336 .282 .45200003 C .26000003 .46533335 .23233336 .472 .19900002 .472 C .16633334 .472 .14133334 .4646667 .12400001 .45000003 C .10666668 .43600003 .09800001 .41666667 .098000008 .39200003 C .09800001 .36733333 .10633334 .349 .12300001 .337 C .14033334 .3256667 .165 .31733335 .19700001 .312 L .237 .306 C .29433335 .29733334 .335 .28066669 .359 .256 C .38300003 .232 .395 .20033334 .395 .161 C .395 .12766667 .38733337 .09900001 .372 .075 C .35666669 .051 .33466665 .032333334 .306 .019000002 C .27733336 .006333334 .24333334 0 .20400001 0 Z "/>
</symbol>
<use xlink:href="#font_0_29" transform="matrix(0,-33.333333,-33.333333,-0,70.24333,318.4469)"/>
<use xlink:href="#font_0_12" transform="matrix(0,-33.333333,-33.333333,-0,70.64333,303.2802)"/>
<use xlink:href="#font_0_16" transform="matrix(0,-33.333333,-33.333333,-0,70.64333,284.98023)"/>
<use xlink:href="#font_0_16" transform="matrix(0,-33.333333,-33.333333,-0,70.64333,268.7469)"/>
<path transform="matrix(2.7777777,0,0,-2.7777777,102.82888,521.72946)" stroke-width=".8" stroke-linecap="square" stroke-miterlimit="10" stroke-linejoin="miter" fill="none" stroke="#000000" d="M 0 0 L 0 142.719 "/>
<path transform="matrix(2.7777777,0,0,-2.7777777,102.82888,521.72946)" stroke-width=".8" stroke-linecap="square" stroke-miterlimit="10" stroke-linejoin="miter" fill="none" stroke="#000000" d="M 0 0 L 223.2 0 "/>
<symbol id="font_1_29">
<path d="M .388 0 L 0 0 L 0 .698 L .097 .698 L .097 .086 L .388 .086 L .388 0 Z "/>
</symbol>
<symbol id="font_1_12">
<path d="M .235 0 C .18833333 0 .14733334 .011 .112 .033 C .07666667 .055666668 .049 .087333347 .029 .128 C .009666666 .16866666 0 .21633333 0 .271 C 0 .3263333 .009666666 .37399999 .029 .414 C .049 .4546667 .07666667 .48600004 .112 .508 C .14733334 .5306667 .18833333 .54200008 .235 .54200008 C .28233335 .54200008 .32366667 .5306667 .35900004 .508 C .39433337 .48600004 .4216667 .4546667 .44100005 .414 C .46100006 .37399999 .47100006 .3263333 .47100003 .271 C .47100006 .21633333 .46100006 .16866666 .44100005 .128 C .4216667 .087333347 .39433337 .055666668 .35900004 .033 C .32366667 .011 .28233335 0 .235 0 M .235 .080000009 C .27566669 .080000009 .30866669 .09233334 .334 .117000009 C .35933338 .14233335 .37200008 .18033333 .37200005 .231 L .37200005 .31100003 C .37200008 .36166669 .35933338 .39933337 .334 .42400003 C .30866669 .44933335 .27566669 .462 .235 .462 C .19500001 .462 .16233336 .44933335 .13700001 .42400003 C .11166668 .39933337 .09900001 .36166669 .09900001 .31100003 L .09900001 .231 C .09900001 .18033333 .11166668 .14233335 .13700001 .117000009 C .16233336 .09233334 .19500001 .080000009 .235 .080000009 Z "/>
</symbol>
<symbol id="font_1_16">
<path d="M .20700002 0 C .15900003 0 .11833335 .009000001 .085 .027 C .052333338 .045 .023999999 .06933334 0 .10000001 L .063 .154 C .082333337 .13000001 .103999998 .111 .12799999 .097 C .15266668 .083666678 .18100001 .07700001 .213 .07700001 C .24633335 .07700001 .27166669 .083666678 .289 .097 C .30633334 .111 .315 .13000001 .315 .154 C .315 .17333333 .30900003 .18933334 .29700003 .202 C .285 .21533335 .26333336 .22399999 .232 .228 L .18800003 .235 C .15533334 .23966666 .12633334 .24766667 .101 .259 C .075666669 .27033333 .055666668 .28633333 .041 .307 C .027 .32766668 .02 .354 .02 .386 C .02 .43733336 .037666669 .47600005 .07300001 .50200006 C .10833335 .52866676 .15333335 .54200008 .208 .54200008 C .23799999 .54200008 .264 .5386667 .286 .53200009 C .30866669 .5253334 .32866667 .5156667 .34600003 .503 C .364 .49100004 .38033334 .47633336 .395 .45900003 L .336 .40300004 C .32333336 .41966669 .306 .43400003 .284 .446 C .26266668 .45866669 .23633333 .465 .20500002 .465 C .17366667 .465 .14999999 .45833335 .134 .44500003 C .11800001 .4316667 .11000001 .41400004 .11000001 .39200003 C .11000001 .36933337 .11733333 .35233335 .132 .34100003 C .14733334 .33033336 .17 .32266668 .20000002 .31800003 L .24400002 .31100003 C .30133335 .303 .34233336 .28633333 .367 .261 C .39233337 .23633333 .405 .204 .405 .164 C .405 .13066668 .39699999 .10166667 .381 .07700001 C .365 .052333338 .342 .03333333 .312 .02 C .28266669 .0066666665 .24766667 0 .20700002 0 Z "/>
</symbol>
<symbol id="font_1_1">
<path d="M .46900005 .012 L .41700004 .012 C .39633338 .011999999 .37900005 .016333335 .365 .025 C .3516667 .034333335 .3416667 .047000003 .335 .063 C .32833336 .079666677 .32500003 .09866667 .32500003 .120000008 L .32500003 .128 L .35600005 .098000008 L .321 .098000008 C .31100003 .06600001 .2926667 .04166667 .26600004 .025 C .23933335 .008333334 .20766668 0 .171 0 C .117000009 0 .074999999 .014000001 .045 .042000005 C .015000001 .07 0 .10766667 0 .155 C 0 .18900001 .0079999989 .21733333 .023999997 .24000001 C .040666667 .26266668 .06533334 .2796667 .098 .291 C .13066668 .303 .17166668 .30900003 .22100002 .30900003 L .31900005 .30900003 L .31900005 .356 C .31900005 .3906667 .3096667 .41733337 .291 .43600003 C .27233336 .4546667 .24333334 .46400003 .204 .46400003 C .17333333 .46400003 .14766667 .45700003 .127 .44300003 C .107000019 .42966668 .09033334 .41200004 .077 .39000003 L .020999998 .441 C .036333335 .469 .059333337 .4926667 .089999999 .512 C .12133333 .53200009 .161 .54200008 .20900002 .54200008 C .2736667 .54200008 .3236667 .5263334 .35900004 .495 C .39433337 .46366669 .41200004 .42 .41200004 .36400003 L .41200004 .091000009 L .46900005 .091000009 L .46900005 .012 M .31900005 .244 L .22000003 .244 C .17800002 .244 .147 .23766667 .127 .22500001 C .107000019 .21233334 .09700001 .194 .09700001 .17 L .09700001 .15 C .09700001 .126 .105666678 .10733334 .123 .094000007 C .14033334 .08133334 .16333334 .075 .192 .075 C .2166667 .075 .23833336 .078666668 .25700004 .086 C .27633337 .094000007 .29133336 .10466667 .30200003 .11800001 C .31333337 .13133334 .31900005 .14666666 .31900005 .164 L .31900005 .244 Z "/>
</symbol>
<symbol id="font_1_2bd">
<path d="M 0 0 Z "/>
</symbol>
<symbol id="font_1_7">
<path d="M .083000008 0 L .083000008 .439 L 0 .439 L 0 .518 L .083000008 .518 L .083000008 .614 C .083000008 .652 .093 .6823333 .113 .70500007 C .133 .7283333 .16333334 .74 .20400001 .74 L .285 .74 L .285 .661 L .17600002 .661 L .17600002 .518 L .285 .518 L .285 .439 L .17600002 .439 L .17600002 0 L .083000008 0 Z "/>
</symbol>
<symbol id="font_1_18">
<path d="M .32100005 .012 L .32100005 .097 L .31700004 .097 C .3076667 .071666669 .29200004 .049 .26999999 .029000001 C .24799998 .009666667 .21533335 0 .172 0 C .11933333 0 .07733333 .017333335 .045999998 .052 C .015333332 .08666667 0 .13566667 0 .199 L 0 .53000006 L .092999998 .53000006 L .092999998 .213 C .092999998 .16966667 .102 .13666667 .120000008 .11400001 C .13866668 .09200001 .16633334 .08100001 .203 .08100001 C .22299999 .08100001 .24199999 .08433334 .26 .091000009 C .278 .09766667 .29266668 .108 .30400003 .12200001 C .31533338 .136 .32100005 .154 .32100005 .176 L .32100005 .53000006 L .41400004 .53000006 L .41400004 .012 L .32100005 .012 Z "/>
</symbol>
<symbol id="font_1_11">
<path d="M .09300001 0 L 0 0 L 0 .518 L .09300001 .518 L .09300001 .43300004 L .097 .43300004 C .109000008 .46166668 .12666668 .485 .15 .503 C .17333335 .521 .20433335 .53000006 .24300002 .53000006 C .29633335 .53000006 .33833338 .5126667 .36900003 .47800002 C .3996667 .44333337 .41500006 .39433337 .41500003 .33100004 L .41500003 0 L .32200004 0 L .32200004 .317 C .32200004 .36100004 .31300003 .39400003 .29500003 .416 C .277 .43800006 .24966668 .44900004 .21300002 .44900004 C .19233334 .44900004 .17266667 .44533337 .15400002 .43800003 C .136 .4313334 .12133334 .421 .11 .407 C .09866667 .393 .09300002 .3756667 .09300001 .35500003 L .09300001 0 Z "/>
</symbol>
<symbol id="font_1_4">
<path d="M .23300003 0 C .15900003 0 .10166667 .024333336 .061000006 .07300001 C .020333335 .12233334 0 .18833333 0 .271 C 0 .35366667 .020333335 .41933335 .061000006 .46800003 C .10166667 .5173334 .15900003 .54200008 .23300003 .54200008 C .28433336 .54200008 .326 .53033336 .35800005 .507 C .3906667 .48433338 .41433335 .4546667 .42900003 .418 L .352 .38000003 C .34333334 .40533338 .32866667 .42533336 .30800004 .44000004 C .28800003 .4546667 .263 .462 .23300003 .462 C .18900001 .462 .15566667 .44833336 .133 .421 C .110333349 .39366666 .09900001 .3586667 .09900001 .316 L .09900001 .22600001 C .09900001 .18333334 .110333349 .14833333 .133 .12100001 C .15566667 .09366667 .18900001 .080000009 .23300003 .080000009 C .26500003 .080000009 .2916667 .08766667 .31300003 .10300001 C .33500005 .11833334 .35233335 .13966666 .365 .167 L .43400003 .126 C .41666667 .087333347 .391 .056666674 .357 .034 C .3236667 .011333334 .28233338 0 .23300003 0 Z "/>
</symbol>
<symbol id="font_1_17">
<path d="M .279 0 L .18100001 0 C .14966667 0 .12533334 .009000001 .10800001 .027 C .09133334 .045 .083000008 .06866667 .083000008 .098000008 L .083000008 .439 L 0 .439 L 0 .518 L .046 .518 C .064 .518 .076 .5216667 .082 .52900007 C .08866668 .5363334 .09200001 .5486667 .09200001 .56600007 L .09200001 .661 L .17600002 .661 L .17600002 .518 L .28700004 .518 L .28700004 .439 L .17600002 .439 L .17600002 .079 L .279 .079 L .279 0 Z "/>
</symbol>
<symbol id="font_1_c">
<path d="M .056 .62600007 C .037333333 .62600007 .023333332 .63066676 .013999999 .64000007 C .004666666 .65000006 0 .66233339 0 .67700007 L 0 .69100007 C 0 .7063334 .004666666 .71866676 .013999999 .72800007 C .023333332 .73733338 .037333333 .74200007 .056 .74200007 C .076000008 .74200007 .090333338 .73733338 .099 .72800007 C .10833333 .71866676 .113 .7063334 .113 .69100007 L .113 .67700007 C .113 .66233339 .10833333 .65000006 .099 .64000007 C .090333338 .63066676 .076000008 .62600007 .056 .62600007 M .009999998 0 L .009999998 .518 L .10300001 .518 L .10300001 0 L .009999998 0 Z "/>
</symbol>
<symbol id="font_1_13">
<path d="M 0 0 L 0 .718 L .09300001 .718 L .09300001 .633 L .097 .633 C .109000008 .665 .128 .68900009 .15400002 .705 C .18066669 .72166666 .21133335 .73 .246 .73 C .29000003 .73 .32733337 .71900007 .35800005 .697 C .38933338 .675 .41333334 .6436667 .43 .60300007 C .44666664 .563 .455 .51500007 .45499999 .459 C .455 .40366666 .44666664 .35533334 .43 .314 C .41333334 .27333335 .38933338 .24200003 .35800005 .22 C .32733337 .19866668 .29000003 .18800001 .246 .18800001 C .21133335 .18800001 .18133335 .19633334 .156 .213 C .13066668 .22966667 .111 .25366668 .097 .285 L .09300001 .285 L .09300001 0 L 0 0 M .21900003 .269 C .261 .269 .29433335 .28233335 .319 .30900003 C .34366668 .33566667 .35600005 .37100003 .356 .41500003 L .356 .503 C .35600005 .547 .34366668 .5823333 .319 .609 C .29433335 .63566669 .261 .64900007 .21900003 .64900007 C .19633335 .64900007 .17533334 .64466676 .156 .63600006 C .13666667 .628 .12133334 .61700007 .11 .60300007 C .09866667 .58900007 .09300002 .5726667 .09300001 .554 L .09300001 .36900003 C .09300002 .34833337 .09866667 .33033333 .11 .315 C .12133334 .30033336 .13666667 .289 .156 .28100003 C .17533334 .273 .19633335 .269 .21900003 .269 Z "/>
</symbol>
<symbol id="font_1_15">
<path d="M .09300001 0 L 0 0 L 0 .518 L .09300001 .518 L .09300001 .41900004 L .098000008 .41900004 C .10333333 .43633334 .11200001 .45233337 .12400001 .467 C .13666667 .48233334 .15266668 .49466668 .172 .504 C .19200002 .5133333 .216 .518 .244 .518 L .274 .518 L .274 .42700003 L .22900002 .42700003 C .20033334 .42700003 .17566668 .42333333 .15500002 .416 C .135 .4086667 .11966667 .3986667 .10900001 .386 C .09833334 .37400005 .09300002 .35933338 .09300001 .342 L .09300001 0 Z "/>
</symbol>
<symbol id="font_1_6">
<path d="M .23600002 0 C .18800001 0 .14633334 .011 .111 .033 C .07566667 .055666668 .048333337 .087333347 .029 .128 C .009666666 .16866666 0 .21633333 0 .271 C 0 .32566668 .009666666 .37333334 .029 .414 C .048333337 .4546667 .075333338 .48600004 .11 .508 C .14533334 .5306667 .18699999 .54200008 .235 .54200008 C .28300003 .54200008 .3236667 .5306667 .357 .508 C .391 .48600004 .41699998 .4556667 .435 .41700004 C .45299999 .37833334 .462 .335 .462 .287 L .462 .24800001 L .097 .24800001 L .097 .227 C .097 .18366666 .10966667 .148 .135 .120000008 C .16033334 .09266666 .19633335 .079 .24300002 .079 C .27566669 .079 .30366669 .086333338 .32700003 .101 C .35033334 .11566668 .369 .13633335 .38300003 .163 L .44300003 .112 C .42500005 .078666668 .398 .051666667 .362 .031000002 C .32666669 .010333334 .2846667 0 .23600002 0 M .235 .467 C .20833333 .467 .18433334 .46066667 .163 .448 C .14233333 .43533335 .126 .418 .11400001 .396 C .102666679 .37399999 .097 .34866668 .097 .32000003 L .097 .31300003 L .36300005 .31300003 L .36300005 .323 C .36300005 .35233335 .3576667 .37766669 .347 .39900003 C .337 .42033337 .32233338 .43700005 .30300004 .449 C .28366668 .461 .261 .467 .235 .467 Z "/>
</symbol>
<symbol id="font_1_5">
<path d="M .36100004 .012 L .36100004 .097 L .35700003 .097 C .34366668 .06566667 .32433335 .04166667 .29900003 .025 C .27366669 .008333334 .24333334 0 .208 0 C .16533333 0 .12833333 .0106666679 .09700001 .032 C .065666679 .054000006 .041666669 .08533334 .024999999 .126 C .008333333 .16733335 0 .21566667 0 .271 C 0 .32700003 .008333333 .375 .024999999 .41500003 C .041666669 .4556667 .065666679 .487 .09700001 .509 C .12833333 .5310001 .16533333 .54200008 .208 .54200008 C .24333334 .54200008 .27400003 .5336667 .3 .517 C .326 .501 .34500004 .47700004 .35700003 .44500003 L .36100004 .44500003 L .36100004 .75200006 L .45400004 .75200006 L .45400004 .012 L .36100004 .012 M .23500002 .08100001 C .25900004 .08100001 .28033338 .08500001 .29900003 .093 C .31833337 .101 .33333335 .112333338 .344 .127 C .35533337 .14233335 .36100004 .16033334 .36100004 .18100001 L .36100004 .366 C .36100004 .38466669 .35533337 .40100003 .344 .41500003 C .33333335 .42900003 .31833337 .44000004 .29900003 .448 C .28033338 .4566667 .25900004 .46100006 .23500002 .46100004 C .19366668 .46100006 .16066668 .44766668 .136 .421 C .11133333 .39433337 .099 .359 .099 .315 L .099 .227 C .099 .18300002 .11133333 .14766668 .136 .12100001 C .16066668 .09433334 .19366668 .08100001 .23500002 .08100001 Z "/>
</symbol>
<symbol id="font_1_10">
<path d="M .09300001 0 L 0 0 L 0 .518 L .09300001 .518 L .09300001 .43300004 L .097 .43300004 C .10833334 .4596667 .124333348 .48233334 .14500001 .50100007 C .16633334 .52033337 .19700001 .53000006 .237 .53000006 C .271 .53000006 .30200003 .5216667 .33000005 .505 C .35800005 .48833335 .37900005 .46166668 .393 .425 L .39500005 .425 C .40433336 .45299999 .42200003 .47733335 .448 .49800004 C .47466669 .51933339 .5093334 .53000006 .552 .53000006 C .6046667 .53000006 .64533337 .5126667 .674 .47800002 C .7033334 .44333337 .718 .39433337 .718 .33100004 L .718 0 L .625 0 L .625 .317 C .625 .36033336 .6166667 .39300005 .6 .41500003 C .5833333 .43766669 .5566667 .44900004 .52000007 .44900004 C .5006667 .44900004 .482 .44533337 .464 .43800003 C .4466667 .4313334 .4326667 .421 .422 .407 C .41133333 .393 .40600003 .3756667 .40600003 .35500003 L .40600003 0 L .31300003 0 L .31300003 .317 C .31300003 .36100004 .30433337 .39400003 .287 .416 C .27033336 .43800006 .24433334 .44900004 .209 .44900004 C .18966669 .44900004 .17100002 .44533337 .15300001 .43800003 C .135 .4313334 .12033334 .421 .10900001 .407 C .09833334 .393 .09300002 .3756667 .09300001 .35500003 L .09300001 0 Z "/>
</symbol>
<symbol id="font_1_3">
<path d="M 0 .012 L 0 .75200006 L .09300001 .75200006 L .09300001 .44500003 L .097 .44500003 C .109000008 .47700004 .128 .501 .15400002 .517 C .18066669 .5336667 .21133335 .54200008 .246 .54200008 C .29000003 .54200008 .32733337 .5310001 .35800005 .509 C .38933338 .487 .41333334 .4556667 .43 .41500003 C .44666664 .375 .455 .32700003 .45499999 .271 C .455 .21566667 .44666664 .16733335 .43 .126 C .41333334 .08533334 .38933338 .054000006 .35800005 .032 C .32733337 .0106666679 .29000003 0 .246 0 C .21133335 0 .18133335 .008333334 .156 .025 C .13066668 .04166667 .111 .06566667 .097 .097 L .09300001 .097 L .09300001 .012 L 0 .012 M .21900003 .08100001 C .261 .08100001 .29433335 .09433334 .319 .12100001 C .34366668 .14766668 .35600005 .18300002 .356 .227 L .356 .315 C .35600005 .359 .34366668 .39433337 .319 .421 C .29433335 .44766668 .261 .46100006 .21900003 .46100004 C .19633335 .46100006 .17533334 .4566667 .156 .448 C .13666667 .44000004 .12133334 .42900003 .11 .41500003 C .09866667 .40100003 .09300002 .38466669 .09300001 .366 L .09300001 .18100001 C .09300002 .16033334 .09866667 .14233335 .11 .127 C .12133334 .112333338 .13666667 .101 .156 .093 C .17533334 .08500001 .19633335 .08100001 .21900003 .08100001 Z "/>
</symbol>
<symbol id="font_1_e">
<path d="M 0 0 L 0 .74 L .09300001 .74 L .09300001 .37300004 L .09300001 .277 L .097 .277 L .17400001 .367 L .31200005 .518 L .422 .518 L .23400001 .314 L .44099999 0 L .329 0 L .168 .25500003 L .09300001 .177 L .09300001 0 L 0 0 Z "/>
</symbol>
<use xlink:href="#font_1_29" transform="matrix(33.20889,0,0,-33.20889,56.412134,95.21387)"/>
<use xlink:href="#font_1_12" transform="matrix(33.20889,0,0,-33.20889,71.75464,95.61237)"/>
<use xlink:href="#font_1_16" transform="matrix(33.20889,0,0,-33.20889,90.01954,95.61237)"/>
<use xlink:href="#font_1_16" transform="matrix(33.20889,0,0,-33.20889,106.29189,95.61237)"/>
<use xlink:href="#font_1_1" transform="matrix(33.20889,0,0,-33.20889,133.656,95.61237)"/>
<use xlink:href="#font_1_16" transform="matrix(33.20889,0,0,-33.20889,151.35634,95.61237)"/>
<use xlink:href="#font_1_2bd" transform="matrix(33.20889,0,0,-33.20889,166.49959,95.21387)"/>
<use xlink:href="#font_1_1" transform="matrix(33.20889,0,0,-33.20889,175.73166,95.61237)"/>
<use xlink:href="#font_1_2bd" transform="matrix(33.20889,0,0,-33.20889,192.30289,95.21387)"/>
<use xlink:href="#font_1_7" transform="matrix(33.20889,0,0,-33.20889,201.03682,95.21387)"/>
<use xlink:href="#font_1_18" transform="matrix(33.20889,0,0,-33.20889,213.6894,95.61237)"/>
<use xlink:href="#font_1_11" transform="matrix(33.20889,0,0,-33.20889,232.88413,95.21387)"/>
<use xlink:href="#font_1_4" transform="matrix(33.20889,0,0,-33.20889,250.68408,95.61237)"/>
<use xlink:href="#font_1_17" transform="matrix(33.20889,0,0,-33.20889,266.92323,95.21387)"/>
<use xlink:href="#font_1_c" transform="matrix(33.20889,0,0,-33.20889,280.24003,95.21387)"/>
<use xlink:href="#font_1_12" transform="matrix(33.20889,0,0,-33.20889,287.87806,95.61237)"/>
<use xlink:href="#font_1_11" transform="matrix(33.20889,0,0,-33.20889,307.73695,95.21387)"/>
<use xlink:href="#font_1_2bd" transform="matrix(33.20889,0,0,-33.20889,324.0425,95.21387)"/>
<use xlink:href="#font_1_12" transform="matrix(33.20889,0,0,-33.20889,333.3742,95.61237)"/>
<use xlink:href="#font_1_7" transform="matrix(33.20889,0,0,-33.20889,351.40666,95.21387)"/>
<use xlink:href="#font_1_2bd" transform="matrix(33.20889,0,0,-33.20889,361.50215,95.21387)"/>
<use xlink:href="#font_1_13" transform="matrix(33.20889,0,0,-33.20889,372.06257,101.855648)"/>
<use xlink:href="#font_1_15" transform="matrix(33.20889,0,0,-33.20889,391.48976,95.21387)"/>
<use xlink:href="#font_1_6" transform="matrix(33.20889,0,0,-33.20889,402.68116,95.61237)"/>
<use xlink:href="#font_1_5" transform="matrix(33.20889,0,0,-33.20889,421.1121,95.61237)"/>
<use xlink:href="#font_1_c" transform="matrix(33.20889,0,0,-33.20889,441.3031,95.21387)"/>
<use xlink:href="#font_1_4" transform="matrix(33.20889,0,0,-33.20889,448.9411,95.61237)"/>
<use xlink:href="#font_1_17" transform="matrix(33.20889,0,0,-33.20889,465.18028,95.21387)"/>
<use xlink:href="#font_1_6" transform="matrix(33.20889,0,0,-33.20889,477.6004,95.61237)"/>
<use xlink:href="#font_1_5" transform="matrix(33.20889,0,0,-33.20889,496.0313,95.61237)"/>
<use xlink:href="#font_1_2bd" transform="matrix(33.20889,0,0,-33.20889,513.83126,95.21387)"/>
<use xlink:href="#font_1_11" transform="matrix(33.20889,0,0,-33.20889,524.3917,95.21387)"/>
<use xlink:href="#font_1_18" transform="matrix(33.20889,0,0,-33.20889,543.25436,95.61237)"/>
<use xlink:href="#font_1_10" transform="matrix(33.20889,0,0,-33.20889,562.4491,95.21387)"/>
<use xlink:href="#font_1_3" transform="matrix(33.20889,0,0,-33.20889,591.57327,95.61237)"/>
<use xlink:href="#font_1_6" transform="matrix(33.20889,0,0,-33.20889,609.7717,95.61237)"/>
<use xlink:href="#font_1_15" transform="matrix(33.20889,0,0,-33.20889,629.2985,95.21387)"/>
<use xlink:href="#font_1_2bd" transform="matrix(33.20889,0,0,-33.20889,638.9955,95.21387)"/>
<use xlink:href="#font_1_17" transform="matrix(33.20889,0,0,-33.20889,647.7627,95.21387)"/>
<use xlink:href="#font_1_12" transform="matrix(33.20889,0,0,-33.20889,660.18276,95.61237)"/>
<use xlink:href="#font_1_e" transform="matrix(33.20889,0,0,-33.20889,680.0417,95.21387)"/>
<use xlink:href="#font_1_6" transform="matrix(33.20889,0,0,-33.20889,696.6461,95.61237)"/>
<use xlink:href="#font_1_11" transform="matrix(33.20889,0,0,-33.20889,716.173,95.21387)"/>
<path transform="matrix(2.7777777,0,0,-2.7777777,0,621.4833)" d="M 46.018 171.231 L 66.018009 171.231 L 66.018009 178.231 L 46.018 178.231 Z " fill="#b4b4b4"/>
<path transform="matrix(2.7777777,0,0,-2.7777777,0,621.4833)" d="M 46.079 152.041 L 66.078998 152.041 L 66.078998 159.041 L 46.079 159.041 Z " fill="#2e61f5"/>
<symbol id="font_0_20">
<path d="M .28100003 0 C .22233336 0 .172 .013333333 .13000001 .04 C .088 .06733334 .05566667 .10733334 .033000005 .16 C .011000001 .21333333 0 .279 0 .35700003 C 0 .43500004 .011000001 .501 .033000005 .55500009 C .05566667 .6096667 .088 .651 .13000001 .6790001 C .172 .7076667 .22233336 .72200009 .28100003 .72200009 C .33900003 .72200009 .388 .70866677 .42800004 .68200007 C .46800003 .6553334 .49899999 .6176667 .521 .56900009 L .45300005 .52800008 C .439 .56400009 .41766668 .59266677 .38900004 .6140001 C .36033336 .6360001 .32433335 .6470001 .28100003 .6470001 C .22100002 .6470001 .17400003 .62500008 .14000002 .58100005 C .10666668 .53766676 .09 .48033337 .09 .409 L .09 .305 C .09 .23366666 .10666668 .17733334 .14000002 .136 C .17400003 .09533334 .22100002 .075 .28100003 .075 C .3256667 .075 .36300005 .086333338 .39300005 .109000008 C .423 .13233333 .44500003 .163 .45900003 .201 L .526 .159 C .504 .11033333 .472 .071666669 .43000005 .043 C .38866673 .014333334 .33900003 0 .28100003 0 Z "/>
</symbol>
<symbol id="font_0_2bd">
<path d="M 0 0 Z "/>
</symbol>
<symbol id="font_0_22">
<path d="M .42600007 0 L 0 0 L 0 .698 L .42600007 .698 L .42600007 .624 L .084 .624 L .084 .39000003 L .40600003 .39000003 L .40600003 .316 L .084 .316 L .084 .074 L .42600007 .074 L .42600007 0 Z "/>
</symbol>
<symbol id="font_0_11">
<path d="M .080000009 0 L 0 0 L 0 .51600006 L .080000009 .51600006 L .080000009 .432 L .084000017 .432 C .09666667 .46133337 .114333357 .48466669 .13700003 .50200006 C .16033334 .51933339 .19133334 .528 .23000002 .528 C .28333334 .528 .32533334 .51066669 .356 .476 C .38733337 .442 .40300004 .39366666 .40300004 .33100004 L .40300004 0 L .323 0 L .323 .317 C .323 .363 .313 .3976667 .293 .42100004 C .27366666 .44433335 .24466665 .456 .206 .45600004 C .18466668 .456 .16433333 .45233337 .14500001 .44500003 C .12566668 .43833337 .11000001 .4276667 .09800001 .41300003 C .086 .39833335 .080000009 .38000003 .080000009 .358 L .080000009 0 Z "/>
</symbol>
<symbol id="font_0_13">
<path d="M 0 0 L 0 .716 L .080000009 .716 L .080000009 .632 L .084000017 .632 C .09733334 .6646667 .117000009 .68866667 .143 .704 C .16900002 .71999999 .19966668 .728 .23500002 .728 C .27833335 .728 .31566669 .717 .347 .69500008 C .37833334 .67300006 .40233336 .64166668 .419 .601 C .43633334 .56100007 .44500003 .5133333 .44500003 .458 C .44500003 .40333335 .43633334 .35566668 .419 .315 C .40233336 .27433334 .37833334 .24300002 .347 .221 C .31566669 .199 .27833335 .18800001 .23500002 .18800001 C .19966668 .18800001 .16933334 .196 .14400003 .212 C .11933335 .228 .09933334 .252 .084000017 .284 L .080000009 .284 L .080000009 0 L 0 0 M .213 .26 C .25833337 .26 .29400004 .27400003 .32000003 .30200003 C .34600006 .3306667 .35900007 .36800004 .35900004 .41400004 L .35900004 .50200006 C .35900007 .54800006 .34600006 .58500006 .32000003 .61300006 C .29400004 .6416667 .25833337 .656 .213 .656 C .18900001 .656 .16666667 .6516667 .146 .643 C .126 .6343333 .11000001 .62266668 .09800001 .60800006 C .086 .59333339 .080000009 .57633337 .080000009 .55700007 L .080000009 .365 C .080000009 .34300003 .086 .324 .09800001 .308 C .11000001 .29266668 .126 .28066669 .146 .272 C .16666667 .264 .18900001 .26 .213 .26 Z "/>
</symbol>
<symbol id="font_0_1c">
<path d="M .26100005 .365 L .38600005 .716 L .46500004 .716 L .23400001 .08 C .22666668 .05933333 .21833335 .043333327 .209 .03199999 C .20033334 .019999996 .18866669 .011666666 .17400001 .0069999995 C .15933335 .002333333 .13933335 0 .11400001 0 L .073 0 L .073 .06999999 L .154 .06999999 L .193 .18 L 0 .716 L .08 .716 L .20400001 .365 L .228 .28100003 L .233 .28100003 L .26100005 .365 Z "/>
</symbol>
<symbol id="font_0_2b">
<path d="M .42400003 0 L .16900003 .42600004 L .085 .58100005 L .08200001 .58100005 L .08200001 .42600004 L .08200001 0 L 0 0 L 0 .698 L .09700001 .698 L .35200004 .272 L .43600006 .117000009 L .439 .117000009 L .439 .272 L .439 .698 L .521 .698 L .521 0 L .42400003 0 Z "/>
</symbol>
<symbol id="font_0_10">
<path d="M .080000009 0 L 0 0 L 0 .51600006 L .080000009 .51600006 L .080000009 .432 L .084000017 .432 C .09533334 .45866669 .11133333 .48133336 .132 .5 C .15266668 .5186667 .18300002 .528 .22300002 .528 C .257 .528 .28833334 .5196667 .317 .503 C .34566669 .48700003 .367 .46033336 .381 .423 L .38300003 .423 C .39233337 .451 .4096667 .47533337 .43500004 .49600003 C .461 .5173333 .49600003 .528 .54 .528 C .5926667 .528 .63366678 .51066669 .66300007 .476 C .6930001 .442 .708 .39366666 .70800009 .33100004 L .70800009 0 L .6280001 0 L .6280001 .317 C .6280001 .36233334 .6190001 .39666669 .6010001 .42000003 C .58300009 .444 .5543334 .456 .51500007 .45600004 C .49433337 .456 .47466669 .45233337 .456 .44500003 C .43733336 .43833337 .42233334 .4276667 .411 .41300003 C .3996667 .39833335 .39400003 .38000003 .39400003 .358 L .39400003 0 L .314 0 L .314 .317 C .314 .363 .305 .3976667 .287 .42100004 C .26900003 .44433335 .24100001 .456 .20300001 .45600004 C .18233334 .456 .16233333 .45233337 .143 .44500003 C .124333348 .43833337 .109000008 .4276667 .09700001 .41300003 C .08566668 .39833335 .080000009 .38000003 .080000009 .358 L .080000009 0 Z "/>
</symbol>
<symbol id="font_0_3">
<path d="M 0 .012 L 0 .75200006 L .080000009 .75200006 L .080000009 .444 L .084000017 .444 C .09733334 .4766667 .117000009 .5006667 .143 .51600006 C .16900002 .532 .19966668 .54 .23500002 .54 C .27833335 .54 .31566669 .52900007 .347 .507 C .37833334 .485 .40233336 .4536667 .419 .41300003 C .43633334 .37300004 .44500003 .32533337 .44500003 .27 C .44500003 .21533335 .43633334 .16766668 .419 .127 C .40233336 .086333338 .37833334 .054999997 .347 .033 C .31566669 .011 .27833335 0 .23500002 0 C .19966668 0 .16933334 .008 .14400003 .024 C .11933335 .040000004 .09933334 .064 .084000017 .09600001 L .080000009 .09600001 L .080000009 .012 L 0 .012 M .213 .072000008 C .25833337 .072000008 .29400004 .086 .32000003 .11400001 C .34600006 .14266669 .35900007 .18 .35900004 .22600001 L .35900004 .314 C .35900007 .36 .34600006 .39699999 .32000003 .425 C .29400004 .4536667 .25833337 .46800003 .213 .46800003 C .18900001 .46800003 .16666667 .46366669 .146 .455 C .126 .44633333 .11000001 .43466667 .09800001 .42000003 C .086 .40533338 .080000009 .38833333 .080000009 .36900003 L .080000009 .177 C .080000009 .15499999 .086 .13599999 .09800001 .120000008 C .11000001 .10466667 .126 .09266666 .146 .08400001 C .16666667 .076000008 .18900001 .072000008 .213 .072000008 Z "/>
</symbol>
<symbol id="font_0_31">
<path d="M .528 .624 L .306 .624 L .306 0 L .22200002 0 L .22200002 .624 L 0 .624 L 0 .698 L .528 .698 L .528 .624 Z "/>
</symbol>
<symbol id="font_0_e">
<path d="M 0 0 L 0 .74 L .080000009 .74 L .080000009 .363 L .080000009 .27100004 L .084000017 .27100004 L .16300002 .35900004 L .30900003 .51600006 L .40600003 .51600006 L .215 .312 L .42500005 0 L .328 0 L .157 .263 L .080000009 .18400002 L .080000009 0 L 0 0 Z "/>
</symbol>
<use xlink:href="#font_0_20" transform="matrix(30.555554,0,0,-30.555554,196.80249,148.98606)"/>
<use xlink:href="#font_0_15" transform="matrix(30.555554,0,0,-30.555554,216.6025,148.61939)"/>
<use xlink:href="#font_0_12" transform="matrix(30.555554,0,0,-30.555554,226.5025,148.98606)"/>
<use xlink:href="#font_0_16" transform="matrix(30.555554,0,0,-30.555554,243.2775,148.98606)"/>
<use xlink:href="#font_0_16" transform="matrix(30.555554,0,0,-30.555554,257.97474,148.98606)"/>
<use xlink:href="#font_0_2bd" transform="matrix(30.555554,0,0,-30.555554,271.75529,148.61939)"/>
<use xlink:href="#font_0_22" transform="matrix(30.555554,0,0,-30.555554,281.80805,148.61939)"/>
<use xlink:href="#font_0_11" transform="matrix(30.555554,0,0,-30.555554,299.3775,148.61939)"/>
<use xlink:href="#font_0_17" transform="matrix(30.555554,0,0,-30.555554,315.02195,148.61939)"/>
<use xlink:href="#font_0_15" transform="matrix(30.555554,0,0,-30.555554,327.45808,148.61939)"/>
<use xlink:href="#font_0_12" transform="matrix(30.555554,0,0,-30.555554,337.35807,148.98606)"/>
<use xlink:href="#font_0_13" transform="matrix(30.555554,0,0,-30.555554,355.63029,154.7305)"/>
<use xlink:href="#font_0_1c" transform="matrix(30.555554,0,0,-30.555554,371.12504,154.7305)"/>
<use xlink:href="#font_0_2b" transform="matrix(30.555554,0,0,-30.555554,198.75804,199.1583)"/>
<use xlink:href="#font_0_18" transform="matrix(30.555554,0,0,-30.555554,219.96361,199.52497)"/>
<use xlink:href="#font_0_10" transform="matrix(30.555554,0,0,-30.555554,237.47194,199.1583)"/>
<use xlink:href="#font_0_3" transform="matrix(30.555554,0,0,-30.555554,264.14695,199.52497)"/>
<use xlink:href="#font_0_6" transform="matrix(30.555554,0,0,-30.555554,280.708,199.52497)"/>
<use xlink:href="#font_0_15" transform="matrix(30.555554,0,0,-30.555554,298.64418,199.1583)"/>
<use xlink:href="#font_0_2bd" transform="matrix(30.555554,0,0,-30.555554,307.26084,199.1583)"/>
<use xlink:href="#font_0_31" transform="matrix(30.555554,0,0,-30.555554,315.14414,199.1583)"/>
<use xlink:href="#font_0_12" transform="matrix(30.555554,0,0,-30.555554,331.39973,199.52497)"/>
<use xlink:href="#font_0_e" transform="matrix(30.555554,0,0,-30.555554,349.67195,199.1583)"/>
<use xlink:href="#font_0_6" transform="matrix(30.555554,0,0,-30.555554,364.09416,199.52497)"/>
<use xlink:href="#font_0_11" transform="matrix(30.555554,0,0,-30.555554,382.03028,199.1583)"/>
<use xlink:href="#font_0_2bd" transform="matrix(30.555554,0,0,-30.555554,396.7886,199.1583)"/>
<use xlink:href="#font_0_29" transform="matrix(30.555554,0,0,-30.555554,406.84138,199.1583)"/>
<use xlink:href="#font_0_12" transform="matrix(30.555554,0,0,-30.555554,420.43858,199.52497)"/>
<use xlink:href="#font_0_16" transform="matrix(30.555554,0,0,-30.555554,437.2136,199.52497)"/>
<use xlink:href="#font_0_16" transform="matrix(30.555554,0,0,-30.555554,451.91084,199.52497)"/>
<path transform="matrix(2.7777777,0,0,-2.7777777,377.53749,378.23139)" stroke-width="1" stroke-linecap="butt" stroke-miterlimit="10" stroke-linejoin="miter" fill="none" stroke="#000000" d="M 0 0 L -.042 32.167 "/>
<clipPath id="cp2">
<path transform="matrix(2.7777777,0,0,-2.7777777,0,621.4833)" d="M 0 223.734 L 277.511 223.734 L 277.511 0 L 0 0 Z "/>
</clipPath>
<g clip-path="url(#cp2)">
<path transform="matrix(2.7777777,0,0,-2.7777777,377.55915,394.9958)" d="M 0 0 C 1.05 2.841 2.843 6.367 4.745 8.553 L -.009 6.827 L -4.766 8.541 C -2.859 6.36 -1.056 2.838 0 0 "/>
</g>
<symbol id="font_0_5c">
<path d="M .06100001 0 C .040333339 0 .025 .0053333339 .015000001 .016 C .0050000005 .027333335 0 .041333338 0 .058000007 L 0 .071 C 0 .08833334 .0050000005 .10233334 .015000001 .113000009 C .025 .123666677 .040333339 .12900001 .06100001 .12900001 C .082333337 .12900001 .09766667 .123666677 .107 .113000009 C .11700001 .10233334 .122000019 .08833334 .122000019 .071 L .122000019 .058000007 C .122000019 .041333338 .11700001 .027333335 .107 .016 C .09766667 .0053333339 .082333337 0 .06100001 0 M .06100001 .411 C .040333339 .411 .025 .41633336 .015000001 .42700003 C .0050000005 .43833337 0 .45233334 0 .469 L 0 .48200003 C 0 .49933336 .0050000005 .5133334 .015000001 .52400007 C .025 .5346667 .040333339 .54 .06100001 .54 C .082333337 .54 .09766667 .5346667 .107 .52400007 C .11700001 .5133334 .122000019 .49933336 .122000019 .48200003 L .122000019 .469 C .122000019 .45233334 .11700001 .43833337 .107 .42700003 C .09766667 .41633336 .082333337 .411 .06100001 .411 Z "/>
</symbol>
<use xlink:href="#font_0_20" transform="matrix(33.333333,0,0,-33.333333,259.24137,269.53276)"/>
<use xlink:href="#font_0_12" transform="matrix(33.333333,0,0,-33.333333,279.57475,269.53276)"/>
<use xlink:href="#font_0_15" transform="matrix(33.333333,0,0,-33.333333,299.50807,269.13276)"/>
<use xlink:href="#font_0_15" transform="matrix(33.333333,0,0,-33.333333,311.7414,269.13276)"/>
<use xlink:href="#font_0_6" transform="matrix(33.333333,0,0,-33.333333,322.5414,269.53276)"/>
<use xlink:href="#font_0_4" transform="matrix(33.333333,0,0,-33.333333,340.8414,269.53276)"/>
<use xlink:href="#font_0_17" transform="matrix(33.333333,0,0,-33.333333,357.00804,269.13276)"/>
<use xlink:href="#font_0_2bd" transform="matrix(33.333333,0,0,-33.333333,367.7414,269.13276)"/>
<use xlink:href="#font_0_17" transform="matrix(33.333333,0,0,-33.333333,376.57475,269.13276)"/>
<use xlink:href="#font_0_12" transform="matrix(33.333333,0,0,-33.333333,388.74476,269.53276)"/>
<use xlink:href="#font_0_e" transform="matrix(33.333333,0,0,-33.333333,408.67808,269.13276)"/>
<use xlink:href="#font_0_6" transform="matrix(33.333333,0,0,-33.333333,424.41145,269.53276)"/>
<use xlink:href="#font_0_11" transform="matrix(33.333333,0,0,-33.333333,443.9781,269.13276)"/>
<use xlink:href="#font_0_5c" transform="matrix(33.333333,0,0,-33.333333,462.9114,269.53276)"/>
<symbol id="font_3_2bd">
<path d="M 0 0 Z "/>
</symbol>
<symbol id="font_3_3e">
<path d="M .45000003 0 L .307 0 L .307 .134 L 0 .134 L 0 .26200003 L .272 .698 L .45000003 .698 L .45000003 .25 L .538 .25 L .538 .134 L .45000003 .134 L .45000003 0 M .29700003 .54300007 L .120000008 .25 L .307 .25 L .307 .54300007 L .29700003 .54300007 Z "/>
</symbol>
<use xlink:href="#font_3_2bd" transform="matrix(33.333333,0,0,-33.333333,469.8114,269.13276)"/>
<use xlink:href="#font_3_3e" transform="matrix(33.333333,0,0,-33.333333,478.67808,269.13276)"/>
</g>
</g>
</svg>
